<?xml version="1.0" standalone="no"?>
<!DOCTYPE svg PUBLIC "-//W3C//DTD SVG 20010904//EN"
 "http://www.w3.org/TR/2001/REC-SVG-20010904/DTD/svg10.dtd">
<svg version="1.0" xmlns="http://www.w3.org/2000/svg"
 width="619.000000pt" height="203.000000pt" viewBox="0 0 619.000000 203.000000"
 preserveAspectRatio="xMidYMid meet">
<metadata>
Created by potrace 1.16, written by Peter Selinger 2001-2019
</metadata>
<g transform="translate(0.000000,203.000000) scale(0.100000,-0.100000)"
fill="#000000" stroke="none">
<path d="M0 1015 l0 -1015 3095 0 3095 0 0 1015 0 1015 -3095 0 -3095 0 0
-1015z m1562 761 c91 -20 170 -60 228 -118 30 -30 67 -54 97 -64 185 -63 274
-244 274 -560 0 -160 -19 -263 -66 -361 -41 -83 -120 -162 -189 -188 -25 -10
-49 -27 -57 -42 -20 -38 -109 -115 -163 -142 -74 -36 -143 -51 -241 -51 -208
0 -358 86 -448 258 -131 249 -136 741 -10 999 106 219 326 321 575 269z m-967
-10 c18 -8 42 -27 52 -42 17 -27 18 -66 18 -709 0 -769 5 -718 -80 -751 -56
-21 -105 -12 -148 26 l-32 28 -3 686 c-3 757 -5 727 60 759 41 20 88 21 133 3z
m1935 -731 c0 -722 0 -735 -20 -755 -33 -33 -95 -30 -127 6 l-23 25 0 703 c0
547 3 706 13 718 21 27 50 37 105 38 l52 0 0 -735z m627 708 c128 -42 222
-124 265 -231 20 -49 23 -75 23 -187 0 -125 -1 -132 -32 -197 -53 -112 -136
-180 -273 -223 -44 -14 -104 -19 -292 -22 l-238 -5 0 76 0 76 209 0 c183 0
217 3 276 21 121 37 185 131 185 273 0 131 -52 222 -153 267 -49 23 -65 24
-284 27 l-233 3 0 76 0 75 243 -4 c209 -4 250 -7 304 -25z m2452 -13 c168 -41
294 -135 342 -258 20 -48 23 -76 24 -177 0 -110 -2 -125 -27 -178 -38 -81
-117 -160 -197 -199 -36 -18 -68 -33 -70 -35 -2 -1 23 -38 56 -80 83 -108 220
-319 283 -436 l52 -97 -115 0 -115 0 -43 78 c-106 194 -331 507 -357 497 -7
-3 -74 -5 -148 -5 l-134 0 0 -285 0 -285 -105 0 -105 0 2 727 3 727 40 9 c150
31 478 30 614 -3z m-969 -75 l0 -85 -350 0 -350 0 0 -220 0 -220 310 0 311 0
-3 -87 -3 -88 -307 -3 -308 -2 0 -255 0 -255 375 0 375 0 0 -85 0 -85 -480 0
-480 0 0 735 0 735 455 0 455 0 0 -85z"/>
<path d="M1345 1551 c-86 -39 -140 -134 -165 -291 -15 -101 -13 -403 5 -506
41 -231 157 -330 331 -279 l59 17 -30 21 c-138 97 -200 261 -199 527 1 226 42
365 139 469 37 39 42 50 29 55 -32 12 -130 5 -169 -13z"/>
<path d="M1670 1432 c-43 -21 -75 -68 -98 -141 -25 -82 -25 -431 1 -513 39
-126 146 -188 250 -144 102 43 144 186 134 453 -9 265 -64 363 -204 363 -26 0
-64 -8 -83 -18z"/>
<path d="M5198 1573 l-38 -4 0 -281 0 -281 163 7 c272 12 365 46 414 152 23
50 25 66 21 145 -4 79 -8 94 -34 131 -39 56 -96 94 -169 113 -60 16 -284 27
-357 18z"/>
</g>
</svg>
